# xmcd
#
# Track frame offsets:
#	150
#	15689
#	30877
#
# Disc length: 613 seconds
#
# Revision: 0
# Processed by: cddbd v1.5.1PL0 Copyright (c) Steve Scherf et al.
# Submitted via: audiograbber 1.83.01
#
DISCID=13026303
DTITLE=Lutricia McNeal - Promise Me
DYEAR=1900
DGENRE=
TTITLE0=Promise Me (Radio Version)
TTITLE1=Promise Me (Supermodel Version)
TTITLE2=Promise Me (Club Mix)
EXTD=
EXTT0=
EXTT1=
EXTT2=
PLAYORDER=
